<svg width="200" height="200" viewBox="0 0 200 200" fill="none" xmlns="http://www.w3.org/2000/svg">
<rect width="200" height="200" fill="#DADADA"/>
<path d="M83.6168 134.12C83.6168 134.12 78.8498 136.894 87.0138 137.83C96.9058 138.96 101.961 138.798 112.859 136.738C112.859 136.738 115.73 138.533 119.732 140.089C95.2928 150.559 64.4238 139.482 83.6168 134.12ZM80.6288 120.455C80.6288 120.455 75.2808 124.414 83.4518 125.26C94.0188 126.351 102.362 126.44 116.806 123.66C116.806 123.66 118.799 125.685 121.938 126.791C92.3958 135.431 59.4918 127.471 80.6288 120.455V120.455Z" fill="#0074BD"/>
<path d="M105.802 97.271C111.827 104.206 104.222 110.441 104.222 110.441C104.222 110.441 119.511 102.55 112.491 92.664C105.932 83.449 100.904 78.872 128.126 63.084C128.126 63.085 85.395 73.754 105.802 97.271V97.271Z" fill="#EA2D2E"/>
<path d="M138.123 144.229C138.123 144.229 141.652 147.139 134.235 149.388C120.133 153.66 75.5289 154.948 63.1409 149.559C58.6899 147.621 67.0399 144.934 69.6669 144.367C72.4059 143.774 73.9699 143.882 73.9699 143.882C69.0169 140.395 41.9569 150.732 60.2269 153.697C110.048 161.773 151.044 150.06 138.123 144.229V144.229ZM85.9119 106.294C85.9119 106.294 63.2259 111.683 77.8789 113.642C84.0669 114.47 96.3969 114.28 107.89 113.316C117.28 112.527 126.703 110.842 126.703 110.842C126.703 110.842 123.395 112.261 120.999 113.895C97.9569 119.956 53.4549 117.133 66.2679 110.937C77.0999 105.698 85.9119 106.294 85.9119 106.294V106.294ZM126.609 129.041C150.03 116.874 139.2 105.181 131.641 106.756C129.793 107.141 128.964 107.476 128.964 107.476C128.964 107.476 129.652 106.397 130.964 105.933C145.917 100.678 157.415 121.436 126.141 129.658C126.141 129.656 126.5 129.331 126.609 129.041V129.041Z" fill="#0074BD"/>
<path d="M112.491 37.5869C112.491 37.5869 125.459 50.5629 100.188 70.5099C79.9222 86.5159 95.5672 95.6399 100.181 106.069C88.3502 95.3959 79.6722 85.9989 85.4932 77.2539C94.0412 64.4199 117.722 58.1949 112.491 37.5869Z" fill="#EA2D2E"/>
<path d="M88.2139 162.021C110.69 163.458 145.214 161.221 146.031 150.585C146.031 150.585 144.46 154.617 127.454 157.816C108.268 161.428 84.5999 161.007 70.5669 158.69C70.5669 158.691 73.4419 161.071 88.2139 162.021V162.021Z" fill="#0074BD"/>
</svg>
