<svg width="200" height="200" viewBox="0 0 200 200" fill="none" xmlns="http://www.w3.org/2000/svg">
<rect width="200" height="200" fill="#DADADA"/>
<path d="M44.76 37L54.815 149.883L99.933 162.463L145.177 149.837L155.24 37H44.76ZM134.351 62.862L131.004 100.467L131.014 100.67L131 101.137V101.133L128.622 127.427L128.36 129.763L100 137.607V137.608L99.978 137.627L71.667 129.739L69.75 108H83.633L84.618 119.054L100.004 123.224L100 123.232V123.23L115.443 119.001L117.075 101H84.792L84.515 97.957L83.884 90.828L83.553 87H118.302L119.566 73H66.64L66.363 69.959L65.733 62.828L65.401 59H134.682L134.351 62.862V62.862Z" fill="#1572B6"/>
</svg>
