<svg width="200" height="200" viewBox="0 0 200 200" fill="none" xmlns="http://www.w3.org/2000/svg">
<rect width="200" height="200" fill="#DADADA"/>
<path d="M37.408 37.4082H162.592V162.593H37.408V37.4082Z" fill="#F0DB4F"/>
<path d="M152.347 132.736C151.43 127.025 147.706 122.228 136.675 117.755C132.843 115.994 128.571 114.733 127.298 111.829C126.846 110.139 126.786 109.187 127.072 108.164C127.893 104.844 131.856 103.809 134.997 104.761C137.02 105.439 138.935 106.998 140.09 109.485C145.492 105.987 145.481 106.01 149.253 103.606C147.872 101.465 147.135 100.477 146.231 99.5609C142.982 95.9319 138.555 94.0629 131.475 94.2059L127.787 94.6829C124.253 95.5759 120.885 97.4309 118.91 99.9179C112.984 106.642 114.674 118.41 121.885 123.253C128.989 128.585 139.425 129.798 140.758 134.784C142.055 140.888 136.272 142.864 130.524 142.162C126.288 141.281 123.932 139.128 121.385 135.213C116.697 137.926 116.697 137.926 111.877 140.698C113.02 143.197 114.221 144.328 116.137 146.493C125.205 155.691 147.897 155.239 151.967 141.317C152.132 140.839 153.228 137.651 152.347 132.736V132.736ZM105.462 94.9429H93.7531L93.7051 125.215C93.7051 131.653 94.0381 137.555 92.9911 139.364C91.2781 142.922 86.8391 142.481 84.8161 141.791C82.7571 140.779 81.7101 139.34 80.4971 137.306C80.1641 136.722 79.9141 136.27 79.8301 136.235L70.3101 142.065C71.8931 145.314 74.2251 148.134 77.2121 149.966C81.6741 152.644 87.6711 153.465 93.9431 152.025C98.0251 150.836 101.547 148.373 103.391 144.624C106.057 139.709 105.485 133.76 105.461 127.18C105.521 116.445 105.462 105.712 105.462 94.9429V94.9429Z" fill="#323330"/>
</svg>
