<svg width="200" height="200" viewBox="0 0 200 200" fill="none" xmlns="http://www.w3.org/2000/svg">
<rect width="200" height="200" fill="#DADADA"/>
<path d="M87.3 53.7002H59.2C53.6 53.7002 49 58.3002 49 64.0002C48.8 69.5002 53.2 74.1002 58.7 74.3002H87.6L87.3 53.7002V53.7002Z" fill="#073042"/>
<path d="M151 145.3H59.2C53.5 145.3 49 140.7 49 135V63.9004C49 69.6004 53.6 74.2004 59.2 74.3004H136.1C136.1 74.3004 151.1 73.0004 151.1 84.3004V145.3H151Z" fill="#4285F4"/>
<path d="M108.2 108.9C112.3 105.8 113.1 99.9997 110 95.9997C108.3 93.7997 105.7 92.3997 102.9 92.2997H103.2C103.7 92.1997 104.3 92.1997 104.8 92.2997V86.5997C104.8 85.8997 104.5 85.2997 103.9 84.9997C103 84.4997 101.9 84.7997 101.4 85.6997C101.2 85.9997 101.1 86.2997 101.2 86.6997V92.4997C96.1998 93.2997 92.6998 97.9997 93.4998 103.1V103.2C93.8998 105.6 95.1998 107.8 97.1998 109.2L80.2998 145.4H91.2998L99.0998 128.8C99.9998 126.8 102.4 125.9 104.5 126.9C105.3 127.3 106 128 106.4 128.8L114.5 145.4H125.7L108.2 108.9ZM102.5 107.3C99.2998 107.3 96.7998 104.7 96.7998 101.5C96.7998 98.2997 99.3998 95.7997 102.6 95.8997C104.1 95.8997 105.4 96.4997 106.5 97.4997C108.8 99.6997 108.8 103.3 106.6 105.6C105.6 106.6 104.1 107.3 102.5 107.3Z" fill="#3870B2"/>
<path d="M81.2 58.7002H120.6V65.9002H81.2V58.7002Z" fill="white"/>
<path d="M99.5 95.8C102.6 95.8 105.2 98.4 105.1 101.6C105.1 104.7 102.5 107.3 99.3 107.2C96.2 107.2 93.7 104.6 93.7 101.5C93.7 100 94.3 98.6 95.4 97.5C96.5 96.4 98 95.8 99.5 95.8V95.8ZM101.7 92.5V86.5C101.7 85.8 101.4 85.2 100.8 84.9C99.9 84.4 98.8 84.7 98.3 85.6C98.1 85.9 98 86.2 98.1 86.6V92.4C93.1 93.2 89.6 97.9 90.4 103V103.1C90.8 105.5 92.1 107.7 94.1 109.1L72.8 154.8C72 156.4 72.1 158.4 73.2 159.9C74.8 162.2 77.9 162.8 80.2 161.2C81 160.7 81.6 159.9 82 159.1L96.2 128.7C97.1 126.7 99.5 125.8 101.6 126.8C102.4 127.2 103.1 127.9 103.5 128.7L118 158.8C119.2 161.3 122.2 162.3 124.7 161.1C127.2 159.9 128.2 156.9 127 154.4L105.1 108.9C109.1 105.7 109.8 99.8 106.6 95.8C105.4 94.2 103.7 93.1 101.7 92.5" fill="#073042"/>
<path d="M114.8 65.1C113.3 65.1 112.1 64 112.1 62.5C112.1 61.8 112.4 61 112.9 60.5C114 59.5 115.6 59.5 116.7 60.5C117.2 61 117.5 61.7 117.5 62.4C117.4 63.9 116.3 65 114.8 65.1M85.1999 65C83.6999 65 82.4999 63.8 82.4999 62.4C82.4999 61.7 82.7999 61 83.2999 60.5C84.1999 59.4 85.8999 59.2 86.9999 60.1H87.0999C88.1999 61.1 88.2999 62.8 87.2999 63.9L86.9999 64.3C86.4999 64.8 85.7999 65.1 85.0999 65.1M115.6 48.9L120.9 39.7C121.2 39.2 121 38.6 120.6 38.2C120.1 38 119.6 38.1 119.3 38.5L113.8 48C105 44.1 94.9999 44.1 86.2999 48L80.8999 38.6C80.6999 38.3 80.2999 38 79.8999 38C79.4999 38 79.0999 38.2 78.8999 38.6C78.6999 38.9 78.6999 39.4 78.8999 39.7L84.2999 48.9C74.8999 54 68.7999 63.6 67.8999 74.2H132.1C131.3 63.5 125.1 54 115.7 48.9" fill="#3DDC84"/>
<path d="M141.6 94.0998H137.4C137.2 94.1998 137 94.3998 137 94.6998V161.2C137 161.5 137.2 161.7 137.5 161.7H141.9C147 161.7 151.1 157.5 151.1 152.5V84.7998C151.1 89.8998 147 93.9998 141.9 93.9998H141.6V94.0998Z" fill="#073042"/>
</svg>
